REM DIRINDEX 1\2,1\3,1\4,1\5,1\6
REM DIRNAME folder01,folder02,folder03,folder04,folder05,folder06
TITLE ""
FILE "CD1-21.mp3" MP3
  TRACK 01 AUDIO
    TITLE "6:cjc091_0443"
    INDEX 01 00:00:00
  TRACK 02 AUDIO
    TITLE "0:"
    INDEX 01 00:01:58
  TRACK 03 AUDIO
    TITLE "2:cjc091_0444"
    INDEX 01 00:03:10
  TRACK 04 AUDIO
    TITLE "0:"
    INDEX 01 00:04:40
  TRACK 05 AUDIO
    TITLE "3:cjc091_0445"
    INDEX 01 00:04:58
  TRACK 06 AUDIO
    TITLE "0:"
    INDEX 01 00:06:57
  TRACK 07 AUDIO
    TITLE "4:cjc091_0446"
    INDEX 01 00:07:03
  TRACK 08 AUDIO
    TITLE "0:"
    INDEX 01 00:12:52
  TRACK 09 AUDIO
    TITLE "2:cjc091_0447"
    INDEX 01 00:13:61
  TRACK 10 AUDIO
    TITLE "0:"
    INDEX 01 00:15:15
  TRACK 11 AUDIO
    TITLE "3:cjc091_0448"
    INDEX 01 00:15:34
  TRACK 12 AUDIO
    TITLE "0:"
    INDEX 01 00:17:16
  TRACK 13 AUDIO
    TITLE "4:cjc091_0449"
    INDEX 01 00:17:35
  TRACK 14 AUDIO
    TITLE "0:"
    INDEX 01 00:20:41
  TRACK 15 AUDIO
    TITLE "2:cjc091_0450"
    INDEX 01 00:21:57
  TRACK 16 AUDIO
    TITLE "0:"
    INDEX 01 00:23:06
  TRACK 17 AUDIO
    TITLE "3:cjc091_0451"
    INDEX 01 00:23:26
  TRACK 18 AUDIO
    TITLE "0:"
    INDEX 01 00:24:72
  TRACK 19 AUDIO
    TITLE "4:cjc091_0452"
    INDEX 01 00:25:17
  TRACK 20 AUDIO
    TITLE "0:"
    INDEX 01 00:28:00
  TRACK 21 AUDIO
    TITLE "2:cjc091_0453"
    INDEX 01 00:29:11
  TRACK 22 AUDIO
    TITLE "0:"
    INDEX 01 00:30:54
  TRACK 23 AUDIO
    TITLE "3:cjc091_0454"
    INDEX 01 00:31:00
  TRACK 24 AUDIO
    TITLE "0:"
    INDEX 01 00:32:56
  TRACK 25 AUDIO
    TITLE "4:cjc091_0455"
    INDEX 01 00:33:01
  TRACK 26 AUDIO
    TITLE "0:"
    INDEX 01 00:35:74
  TRACK 27 AUDIO
    TITLE "2:cjc091_0456"
    INDEX 01 00:37:10
  TRACK 28 AUDIO
    TITLE "0:"
    INDEX 01 00:39:00
  TRACK 29 AUDIO
    TITLE "3:cjc091_0457"
    INDEX 01 00:39:25
  TRACK 30 AUDIO
    TITLE "0:"
    INDEX 01 00:41:53
  TRACK 31 AUDIO
    TITLE "4:cjc091_0458"
    INDEX 01 00:42:04
  TRACK 32 AUDIO
    TITLE "0:"
    INDEX 01 00:45:22
  TRACK 33 AUDIO
    TITLE "2:cjc091_0459"
    INDEX 01 00:46:37
  TRACK 34 AUDIO
    TITLE "0:"
    INDEX 01 00:49:43
  TRACK 35 AUDIO
    TITLE "3:cjc091_0460"
    INDEX 01 00:49:65
  TRACK 36 AUDIO
    TITLE "0:"
    INDEX 01 00:52:53
  TRACK 37 AUDIO
    TITLE "4:cjc091_0461"
    INDEX 01 00:53:02
  TRACK 38 AUDIO
    TITLE "0:"
    INDEX 01 00:55:73
  TRACK 39 AUDIO
    TITLE "2:cjc091_0462"
    INDEX 01 00:57:21
  TRACK 40 AUDIO
    TITLE "0:"
    INDEX 01 00:58:46
  TRACK 41 AUDIO
    TITLE "3:cjc091_0463"
    INDEX 01 00:58:56
  TRACK 42 AUDIO
    TITLE "0:"
    INDEX 01 01:00:21
  TRACK 43 AUDIO
    TITLE "4:cjc091_0464"
    INDEX 01 01:00:45
  TRACK 44 AUDIO
    TITLE "0:"
    INDEX 01 01:03:35
  TRACK 45 AUDIO
    TITLE "2:cjc091_0465"
    INDEX 01 01:04:48
  TRACK 46 AUDIO
    TITLE "0:"
    INDEX 01 01:05:71
  TRACK 47 AUDIO
    TITLE "3:cjc091_0466"
    INDEX 01 01:06:14
  TRACK 48 AUDIO
    TITLE "0:"
    INDEX 01 01:08:03
  TRACK 49 AUDIO
    TITLE "4:cjc091_0467"
    INDEX 01 01:08:23
  TRACK 50 AUDIO
    TITLE "0:"
    INDEX 01 01:11:27
  TRACK 51 AUDIO
    TITLE "2:cjc091_0468"
    INDEX 01 01:12:40
  TRACK 52 AUDIO
    TITLE "0:"
    INDEX 01 01:13:67
  TRACK 53 AUDIO
    TITLE "3:cjc091_0469"
    INDEX 01 01:14:10
  TRACK 54 AUDIO
    TITLE "0:"
    INDEX 01 01:15:13
  TRACK 55 AUDIO
    TITLE "4:cjc091_0470"
    INDEX 01 01:15:35
  TRACK 56 AUDIO
    TITLE "0:"
    INDEX 01 01:18:60
  TRACK 57 AUDIO
    TITLE "2:cjc091_0471"
    INDEX 01 01:19:74
  TRACK 58 AUDIO
    TITLE "0:"
    INDEX 01 01:22:33
  TRACK 59 AUDIO
    TITLE "3:cjc091_0472"
    INDEX 01 01:22:56
  TRACK 60 AUDIO
    TITLE "0:"
    INDEX 01 01:24:73
  TRACK 61 AUDIO
    TITLE "4:cjc091_0473"
    INDEX 01 01:25:17
  TRACK 62 AUDIO
    TITLE "0:"
    INDEX 01 01:29:52
  TRACK 63 AUDIO
    TITLE "2:cjc091_0474"
    INDEX 01 01:30:66
  TRACK 64 AUDIO
    TITLE "0:"
    INDEX 01 01:32:29
  TRACK 65 AUDIO
    TITLE "3:cjc091_0475"
    INDEX 01 01:32:49
  TRACK 66 AUDIO
    TITLE "0:"
    INDEX 01 01:35:33
  TRACK 67 AUDIO
    TITLE "4:cjc091_0476"
    INDEX 01 01:35:55
  TRACK 68 AUDIO
    TITLE "0:"
    INDEX 01 01:38:22
  TRACK 69 AUDIO
    TITLE "2:cjc091_0477"
    INDEX 01 01:39:39
  TRACK 70 AUDIO
    TITLE "0:"
    INDEX 01 01:41:22
  TRACK 71 AUDIO
    TITLE "3:cjc091_0478"
    INDEX 01 01:41:52
  TRACK 72 AUDIO
    TITLE "0:"
    INDEX 01 01:43:37
  TRACK 73 AUDIO
    TITLE "4:cjc091_0479"
    INDEX 01 01:43:62
  TRACK 74 AUDIO
    TITLE "0:"
    INDEX 01 01:49:16
  TRACK 75 AUDIO
    TITLE "2:cjc091_0480"
    INDEX 01 01:50:31
  TRACK 76 AUDIO
    TITLE "0:"
    INDEX 01 01:51:64
  TRACK 77 AUDIO
    TITLE "3:cjc091_0481"
    INDEX 01 01:52:06
  TRACK 78 AUDIO
    TITLE "0:"
    INDEX 01 01:53:74
  TRACK 79 AUDIO
    TITLE "4:cjc091_0482"
    INDEX 01 01:54:21
  TRACK 80 AUDIO
    TITLE "0:"
    INDEX 01 01:59:01
  TRACK 81 AUDIO
    TITLE "2:cjc091_0483"
    INDEX 01 02:00:12
  TRACK 82 AUDIO
    TITLE "0:"
    INDEX 01 02:02:36
  TRACK 83 AUDIO
    TITLE "3:cjc091_0484"
    INDEX 01 02:02:60
  TRACK 84 AUDIO
    TITLE "0:"
    INDEX 01 02:04:59
  TRACK 85 AUDIO
    TITLE "4:cjc091_0485"
    INDEX 01 02:05:07
  TRACK 86 AUDIO
    TITLE "0:"
    INDEX 01 02:07:67
  TRACK 87 AUDIO
    TITLE "2:cjc091_0486"
    INDEX 01 02:09:05
  TRACK 88 AUDIO
    TITLE "0:"
    INDEX 01 02:10:34
  TRACK 89 AUDIO
    TITLE "3:cjc091_0487"
    INDEX 01 02:10:49
  TRACK 90 AUDIO
    TITLE "0:"
    INDEX 01 02:12:38
  TRACK 91 AUDIO
    TITLE "4:cjc091_0488"
    INDEX 01 02:12:64
  TRACK 92 AUDIO
    TITLE "0:"
    INDEX 01 02:15:58
